<?xml version="1.0" encoding="UTF-8"?>
<svg xmlns="http://www.w3.org/2000/svg" version="1.1" viewBox="0 0 512 512">
  <defs>
    <style>
      .cls-1 {
        fill: #ced5d8;
      }

      .cls-2 {
        fill: #a6afb2;
      }
    </style>
  </defs>
  <!-- Generator: Adobe Illustrator 28.7.3, SVG Export Plug-In . SVG Version: 1.2.0 Build 164)  -->
  <g>
    <g id="objects">
      <path class="cls-1" d="M0,0v512h105.2c-1.7-9.2-2.7-18.8-2.7-28.5,0-16.5,2.6-32.4,7.4-47.3,19.9-61.7,77.8-106.2,146.1-106.2s126.2,44.6,146.1,106.2c4.8,14.9,7.4,30.8,7.4,47.3s-.9,19.3-2.7,28.5h105.2V0H0ZM256,301.7c-53.9,0-97.5-43.7-97.5-97.5s43.7-97.5,97.5-97.5,97.5,43.7,97.5,97.5-43.7,97.5-97.5,97.5Z"/>
      <circle class="cls-1" cx="256" cy="204.2" r="97.5" transform="translate(-69.4 240.8) rotate(-45)"/>
      <path class="cls-1" d="M409.5,483.5c0,9.7-.9,19.3-2.7,28.5H105.2c-1.7-9.2-2.7-18.8-2.7-28.5,0-16.5,2.6-32.4,7.4-47.3,19.9-61.7,77.8-106.2,146.1-106.2s126.2,44.6,146.1,106.2c4.8,14.9,7.4,30.8,7.4,47.3Z"/>
      <g>
        <circle class="cls-1" cx="256" cy="204.2" r="97.5" transform="translate(-69.4 240.8) rotate(-45)"/>
        <path class="cls-1" d="M402.1,436.2c-.5.5-1.1.9-1.6,1.3-39.6,31.6-89.8,50.5-144.4,50.5s-104.8-18.9-144.5-50.5c-.5-.4-1.1-.9-1.6-1.3,19.9-61.7,77.8-106.2,146.1-106.2s126.2,44.6,146.1,106.2Z"/>
        <circle class="cls-2" cx="256" cy="204.2" r="97.5" transform="translate(-69.4 240.8) rotate(-45)"/>
        <path class="cls-2" d="M400.5,437.6c-39.6,31.6-89.8,50.4-144.5,50.4s-104.8-18.9-144.5-50.4c18.8-62,76.3-107.1,144.5-107.1s125.7,45.1,144.5,107.1Z"/>
      </g>
      <path class="cls-2" d="M409.5,483.5c0,9.7-.9,19.3-2.7,28.5H105.2c-1.7-9.2-2.7-18.8-2.7-28.5,0-16.5,2.6-32.4,7.4-47.3,19.9-61.7,77.8-106.2,146.1-106.2s126.2,44.6,146.1,106.2c4.8,14.9,7.4,30.8,7.4,47.3Z"/>
    </g>
  </g>
</svg>